<svg width="92" height="104" viewBox="0 0 92 104" fill="none" xmlns="http://www.w3.org/2000/svg">
<path d="M85.7102 23.1588L86.2235 22.2797L85.7102 23.1588C88.2614 24.6483 89.8243 27.419 89.7883 30.4093L89.2862 72.1492C89.251 75.0316 87.7349 77.6819 85.2936 79.1477L49.8 100.458C47.2682 101.978 44.1241 101.997 41.5747 100.509L5.6506 79.5339L5.1255 80.4333L5.65055 79.5339C3.15739 78.0784 1.60331 75.3957 1.57216 72.4734L0.707376 72.4826L1.57216 72.4734L1.12054 30.1762C1.08832 27.158 2.6847 24.3682 5.27539 22.8931L41.7231 2.14003L41.7231 2.14002C44.2301 0.712459 47.2944 0.729185 49.7863 2.18401L85.7102 23.1588Z" fill="#121214" stroke="url(#paint0_linear_7149_17380)" stroke-width="2.162"/>
<path d="M76.0567 30.2071L49.1137 15.0003C46.995 13.8046 44.3881 13.7908 42.2564 14.9642L14.9206 30.0102C12.719 31.222 11.3677 33.5101 11.3949 35.9799L11.7336 66.6453C11.76 69.0367 13.0757 71.237 15.1944 72.4326L42.1374 87.6396C44.3053 88.8631 46.98 88.8468 49.1325 87.5976L75.7528 72.1478C77.8274 70.9436 79.1108 68.7701 79.1406 66.4115L79.5171 36.1499C79.5476 33.703 78.2247 31.4306 76.0567 30.2071Z" fill="url(#paint1_linear_7149_17380)"/>
<path d="M75.6104 72.6973C69.6791 83.8467 58.5829 90.7723 46.4536 90.7723C34.3244 90.7723 23.2282 83.8777 17.2969 72.6973H75.6104Z" fill="url(#paint2_radial_7149_17380)"/>
<path d="M54.7212 27.1123V34.3488C54.0011 34.7088 50.9409 36.1489 46.4407 36.1489C41.9404 36.1489 38.8802 34.7448 38.1602 34.3488V27.1123C38.1602 21.856 44.0285 9.61523 46.4407 9.61523C48.8888 9.61523 54.7212 21.856 54.7212 27.1123Z" fill="white"/>
<path d="M51.5545 22.2138C51.2304 21.9618 49.7903 20.8457 46.4421 20.8457C43.0939 20.8457 41.6538 21.9258 41.3298 22.2138C41.2938 22.2498 41.2578 22.2858 41.2578 22.3578V23.2939C41.2578 23.4379 41.4378 23.5459 41.5458 23.4379C42.1219 23.0418 43.598 22.2858 46.4061 22.2858C49.2143 22.2858 50.6904 23.0418 51.2664 23.4379C51.4104 23.5099 51.5545 23.4379 51.5545 23.2939V22.3578C51.6265 22.3218 51.6265 22.2498 51.5545 22.2138Z" fill="#4763FF"/>
<path d="M54.7188 53.7188C54.7188 53.7188 64.6914 61.6752 65.3034 73.0519C65.3394 73.7 64.7274 74.168 64.1153 73.988C61.1991 73.0879 59.183 69.2357 54.7188 69.2357V53.7188Z" fill="#4763FF"/>
<path d="M38.1955 53.7188C38.1955 53.7188 28.2229 61.6752 27.6109 73.0519C27.5749 73.7 28.1869 74.168 28.799 73.988C31.7151 73.0879 33.7313 69.2357 38.1955 69.2357V53.7188V53.7188Z" fill="#4763FF"/>
<path d="M54.7212 39.0293C54.7212 51.018 54.7212 69.2352 54.7212 69.2352H38.1602C38.1602 69.2352 38.1602 51.018 38.1602 39.0293C38.8802 39.3893 41.9404 40.8294 46.4407 40.8294C50.9409 40.8294 54.0011 39.4253 54.7212 39.0293Z" fill="white"/>
<path d="M46.438 53.7188C45.5379 53.7188 44.4219 63.2233 44.4219 73.448C44.4219 75.0681 45.4299 76.6522 46.438 76.6522C47.4461 76.6522 48.4541 75.0321 48.4541 73.448C48.4901 63.2233 47.3741 53.7188 46.438 53.7188Z" fill="#4763FF"/>
<path d="M46.4407 69.2344H38.1602L39.9603 73.0866C39.9603 73.0866 44.8926 73.5906 46.4407 73.5906C47.9888 73.5906 52.9211 73.0866 52.9211 73.0866L54.7212 69.2344H46.4407Z" fill="#4763FF"/>
<path d="M46.8704 6.8784V4.68226H47.8065V2.16211H23.793V67.8662H25.4131V62.4658L29.0493 58.8296L31.5695 61.3498L31.6415 61.4218L32.5775 60.0177L30.2014 57.6415L32.5775 55.2654V57.6415H34.1976V4.64626H45.9703V6.8424C45.1423 7.02241 44.5663 7.74245 44.5663 8.64251C44.5663 9.25455 44.8903 9.83058 45.3583 10.1546C45.4663 10.2266 45.5743 10.2986 45.6823 10.3346V11.6667H47.0864V10.3346C47.1944 10.2986 47.3384 10.2266 47.4464 10.1546C47.9145 9.83058 48.2385 9.29055 48.2385 8.64251C48.2745 7.77846 47.6624 7.05841 46.8704 6.8784ZM32.5775 4.64626L29.0853 8.13848L25.5931 4.64626H32.5775ZM32.6135 6.95041V11.6667L30.2374 9.29055L32.6135 6.95041ZM25.4491 6.8424L27.9332 9.32655L25.4491 11.8107V6.8424V6.8424ZM25.4491 14.1148L29.0853 10.4786L32.6135 14.0068V14.3309L29.0853 17.8591L25.4491 14.2229V14.1148V14.1148ZM32.6135 16.599V21.3153L30.2374 18.9391L32.6135 16.599ZM25.4491 16.491L27.9332 18.9751L25.4491 21.4593V16.491V16.491ZM25.4491 26.1396L27.9332 28.6237L25.4491 31.1079V26.1396V26.1396ZM25.4491 35.8242L27.9332 38.3083L25.4491 40.7925V35.8242V35.8242ZM25.4491 45.4728L27.9332 47.9569L25.4491 50.4411V45.4728V45.4728ZM25.4491 60.1257V55.1574L27.9332 57.6415L25.4491 60.1257ZM32.6135 52.9612L29.0853 56.4895L25.4491 52.8532V52.7812L29.0853 49.145L32.6135 52.6732V52.9612ZM32.6135 50.3331L30.2374 47.9569L32.6135 45.5808V50.3331ZM32.6135 43.2766L29.0853 46.8049L25.4491 43.1686V43.0966L29.0853 39.4604L32.6135 42.9886V43.2766ZM32.6135 40.6845L30.2374 38.3083L32.6135 35.9322V40.6845ZM32.6135 33.628L29.0853 37.1563L25.4491 33.52V33.448L29.0853 29.8118L32.6135 33.34V33.628ZM32.6135 30.9999L30.2374 28.6237L32.6135 26.2476V30.9999ZM32.6135 23.6554V23.9795L29.0853 27.5077L27.0332 25.4555L25.4491 23.8715V23.7994L29.0853 20.1632L32.6135 23.6554Z" fill="url(#paint3_linear_7149_17380)"/>
<defs>
<linearGradient id="paint0_linear_7149_17380" x1="23.3775" y1="10.9111" x2="70.6225" y2="89.7799" gradientUnits="userSpaceOnUse">
<stop stop-color="#222A5B"/>
<stop offset="1" stop-color="#4763FF" stop-opacity="0.2"/>
</linearGradient>
<linearGradient id="paint1_linear_7149_17380" x1="11.4102" y1="14.2959" x2="85.5018" y2="82.1118" gradientUnits="userSpaceOnUse">
<stop stop-color="#2D3B8A"/>
<stop offset="1" stop-color="#121214"/>
</linearGradient>
<radialGradient id="paint2_radial_7149_17380" cx="0" cy="0" r="1" gradientUnits="userSpaceOnUse" gradientTransform="translate(46.5332 72.6511) scale(36.6454 20.197)">
<stop stop-color="#3243A1"/>
<stop offset="0.5294" stop-color="#3243A1" stop-opacity="0"/>
</radialGradient>
<linearGradient id="paint3_linear_7149_17380" x1="36.0417" y1="27.3356" x2="36.0417" y2="67.6262" gradientUnits="userSpaceOnUse">
<stop stop-color="#3F57DC"/>
<stop offset="0.677" stop-color="#3F57DC" stop-opacity="0"/>
</linearGradient>
</defs>
</svg>
